<?xml version="1.0" encoding="UTF-8"?>
<svg xmlns="http://www.w3.org/2000/svg" xmlns:xlink="http://www.w3.org/1999/xlink" version="1.1" id="Layer_1" x="0px" y="0px" viewBox="0 0 483.5 99.2" style="enable-background:new 0 0 483.5 99.2;" xml:space="preserve"> <style type="text/css"> .st0{enable-background:new ;} .st1{fill:url(#SVGID_1_);} .st2{fill:#2366D9;} .st3{fill:#F9025C;} .st4{fill-rule:evenodd;clip-rule:evenodd;fill:#F9025C;} </style> <g id="White_1_" class="st0"> <g id="White"> <g> <linearGradient id="SVGID_1_" gradientUnits="userSpaceOnUse" x1="52.6861" y1="696.3448" x2="52.6861" y2="599.2491" gradientTransform="matrix(1 0 0 1 0 -598)"> <stop offset="0" style="stop-color:#F9025C"></stop> <stop offset="1" style="stop-color:#2366D9"></stop> </linearGradient> <path class="st1" d="M97.5,34.7c-4.2-9.1-10.9-13-14.9-15.3c0,0-7.9-18.2-29.3-18.2S23,17,22.2,19.4c0,0-11.2,5-15.7,18.2 c0,0-5.2,12.5,0.6,25.8c4.8,12.2,15.2,16.8,15.2,16.8c0.8,2.4,9.7,18.2,31.1,18.2s29.3-18.2,29.3-18.2c4.9-2.8,14-8.1,17.4-22.7 C102.7,46.7,99.4,38.4,97.5,34.7z M66.3,63.8C64.6,78,52.6,77.4,52.6,77.4c-14.1-0.8-13.6-14-13.6-14c-8.6,0.5-11.5-6.3-11.5-6.3 c-3.5-5.4-2-10.5-1.3-12.3c0.1-0.2,0.1-0.3,0.2-0.5c0.1-0.1,0.1-0.2,0.1-0.2l0,0c0.3-0.6,0.6-1.2,1-1.7c0,0,2.9-6.8,11.5-6.3 c0,0-0.6-13.2,13.6-14c0,0,11.9-0.7,13.6,13.6c0,0,6.9-0.4,10.5,5.2c0,0,6.1,6.2,1.7,15.3c-0.8,1.4-1.5,2.2-1.5,2.2 C73.2,64.2,66.3,63.8,66.3,63.8z"></path> </g> </g> </g> <g> <path class="st2" d="M113.5,73.1V20.5h11.6v19.6h22.5V20.5h11.6v52.6h-11.6V50.4h-22.5v22.8H113.5z"></path> <path class="st2" d="M166.3,61.4c-2.4-4.2-3.7-9.1-3.7-14.6c0-5.5,1.2-10.4,3.7-14.6c2.4-4.2,5.8-7.5,10.1-9.7 c4.3-2.2,9.2-3.4,14.6-3.4c5.5,0,10.3,1.1,14.6,3.4c4.3,2.2,7.6,5.5,10.1,9.7c2.4,4.2,3.7,9.1,3.7,14.6c0,5.5-1.2,10.4-3.7,14.6 c-2.4,4.2-5.8,7.5-10.1,9.7c-4.3,2.2-9.2,3.4-14.6,3.4c-5.5,0-10.3-1.1-14.6-3.4C172.1,68.9,168.8,65.6,166.3,61.4z M179.2,34.6 c-3,3.2-4.5,7.2-4.5,12.2c0,5,1.5,9,4.5,12.2c3,3.2,7,4.8,11.8,4.8c4.9,0,8.8-1.6,11.8-4.8s4.5-7.2,4.5-12.2c0-5-1.5-9-4.5-12.2 c-3-3.2-7-4.8-11.8-4.8C186.2,29.9,182.2,31.4,179.2,34.6z"></path> <path class="st2" d="M222.8,73.1V20.5h17.6l12.1,34.3h0.1l12.2-34.3h17.5v52.6h-11.6V32.8h-0.1l-13.8,40.4h-8.8l-13.3-40.4h-0.1 v40.4H222.8z"></path> <path class="st2" d="M289,73.1V20.5h35.7v10.7h-24.2V41h22.8v10.7h-22.8v10.7H326v10.7H289z"></path> <path class="st2" d="M330.8,73.1V20.5h17.4c3.5,0,6.7,0.3,9.8,0.9c3,0.6,5.9,1.6,8.5,2.9c2.6,1.3,4.9,3,6.8,5 c1.9,2,3.4,4.5,4.4,7.5c1.1,3,1.6,6.4,1.6,10.1c0,3.3-0.5,6.4-1.6,9.2c-1,2.8-2.5,5.3-4.3,7.3c-1.9,2.1-4,3.8-6.5,5.3 c-2.5,1.5-5.2,2.5-8.1,3.2c-2.9,0.7-5.9,1.1-9.1,1.1H330.8z M342.4,62.4h6c2.2,0,4.3-0.2,6.1-0.5s3.6-0.9,5.2-1.7s2.9-1.8,4-3 c1.1-1.2,2-2.7,2.6-4.6c0.6-1.8,0.9-3.9,0.9-6.3c0-2.5-0.5-4.8-1.4-6.7c-1-2-2.3-3.5-3.9-4.8c-1.7-1.2-3.6-2.1-5.7-2.8 c-2.2-0.6-4.5-0.9-7-0.9h-6.8V62.4z"></path> <path class="st3" d="M400.1,73.1V20.5h11.6v52.6H400.1z"></path> <path class="st3" d="M415,46.2c0-3.9,0.7-7.5,2.2-10.9c1.5-3.4,3.5-6.2,6-8.6c2.5-2.3,5.5-4.2,8.9-5.5c3.4-1.3,7.1-2,11-2 s7.5,0.7,11,2c3.4,1.3,6.4,3.2,8.9,5.5c2.5,2.3,4.5,5.2,6,8.6c1.5,3.4,2.2,7,2.2,10.9c0,2.6-0.4,5-1.1,7.3 c-0.7,2.3-1.9,4.4-3.5,6.3c-1.6,1.9-3.6,3.4-5.9,4.4v0.1h14.7v8.9h-31.9c-4.1,0-7.9-0.6-11.4-1.9c-3.5-1.2-6.5-3-9-5.3 s-4.5-5.1-6-8.5C415.7,54.1,415,50.3,415,46.2z M431.8,34.6c-3.1,3.2-4.7,7-4.7,11.5s1.6,8.4,4.7,11.5c3.1,3.2,6.9,4.7,11.4,4.7 c4.4,0,8.2-1.6,11.3-4.7c3.1-3.2,4.7-7,4.7-11.5s-1.6-8.4-4.7-11.5c-3.1-3.2-6.9-4.8-11.3-4.8S434.9,31.4,431.8,34.6z"></path> </g> <g id="Shape_1"> <g> <path class="st4" d="M475,26.4L475,26.4c0.8-0.3,1.4-0.9,1.4-1.9c0-0.6-0.2-1.1-0.6-1.4c-0.5-0.4-1.1-0.6-2.1-0.6 c-0.6,0-1.3,0.1-1.8,0.2v7.1h0.9v-3.1h0.9c0.8,0,1.2,0.4,1.5,1.4c0.2,0.9,0.4,1.5,0.5,1.7h1c-0.1-0.3-0.3-1-0.5-2 C475.9,27.1,475.6,26.6,475,26.4z M473.8,26h-1v-2.6c0.2,0,0.5-0.1,0.9-0.1c1,0,1.7,0.4,1.7,1.3C475.4,25.4,474.8,26,473.8,26z M479.6,22.9c-0.6-1-1.4-1.8-2.4-2.4c-1-0.6-2.1-0.8-3.2-0.8c-1.1,0-2.1,0.3-3.2,0.8c-1,0.6-1.8,1.4-2.4,2.4 c-0.6,1-0.9,2.1-0.9,3.2c0,1.1,0.3,2.2,0.9,3.2c0.6,1,1.4,1.8,2.4,2.4c1,0.6,2.1,0.9,3.2,0.9c1.1,0,2.2-0.3,3.2-0.9 c1-0.6,1.8-1.4,2.4-2.4c0.6-1,0.9-2.1,0.9-3.2C480.4,25,480.2,24,479.6,22.9z M478.7,28.8c-0.5,0.9-1.1,1.5-2,2 c-0.9,0.5-1.8,0.7-2.7,0.7c-0.9,0-1.8-0.2-2.7-0.7c-0.9-0.5-1.5-1.1-2-2c-0.5-0.9-0.7-1.7-0.7-2.7c0-0.9,0.2-1.8,0.7-2.7 c0.5-0.9,1.2-1.5,2-2c0.9-0.5,1.7-0.7,2.7-0.7c0.9,0,1.8,0.2,2.6,0.7c0.9,0.5,1.5,1.1,2,2c0.5,0.9,0.7,1.8,0.7,2.7 C479.4,27.1,479.1,28,478.7,28.8z"></path> </g> </g> <path class="st2" d="M396.8,42.6v8.5c0,0.8-0.7,1.5-1.5,1.5H385c-0.8,0-1.5-0.7-1.5-1.5v-8.5c0-0.8,0.7-1.5,1.5-1.5h10.3 C396.1,41.1,396.8,41.8,396.8,42.6z"></path> </svg> 